<svg width="30" height="26" viewBox="0 0 30 26" fill="none" xmlns="http://www.w3.org/2000/svg">
<path d="M0.424805 12.3921C0.424805 12.1113 0.546875 11.8184 0.81543 11.5986L13.5352 0.91748C14.4507 0.148438 15.5737 0.148438 16.4771 0.91748L22.7026 6.14209V3.83496C22.7026 3.29785 23.0566 2.95605 23.5815 2.95605H24.8877C25.4248 2.95605 25.7666 3.29785 25.7666 3.83496V8.71777L29.1846 11.5986C29.4409 11.8184 29.563 12.0625 29.563 12.4287C29.563 13.0146 29.0991 13.3687 28.5254 13.3687C28.1836 13.3687 27.9028 13.1855 27.6587 12.978L15.4395 2.72412C15.1709 2.47998 14.8413 2.47998 14.5728 2.72412L2.35352 12.978C2.09717 13.1855 1.81641 13.3687 1.47461 13.3687C0.81543 13.3687 0.424805 12.8926 0.424805 12.3921ZM4.2334 23.2808V13.6128L14.2676 5.20215C14.7192 4.82373 15.2686 4.81152 15.7324 5.20215L25.7666 13.6128V23.2808C25.7666 24.9775 24.7534 25.9785 23.0322 25.9785H6.97998C5.25879 25.9785 4.2334 24.9775 4.2334 23.2808ZM18.1372 24.0132V15.9443C18.1372 15.3828 17.771 15.0166 17.2095 15.0166H12.7783C12.2168 15.0166 11.8384 15.3828 11.8384 15.9443V24.0132H18.1372Z" fill="#757575"/>
<path d="M0.81543 11.5986L1.44872 12.3727L1.4585 12.3644L0.81543 11.5986ZM13.5352 0.91748L14.1782 1.68329L14.1783 1.68319L13.5352 0.91748ZM16.4771 0.91748L15.8288 1.67893L15.8342 1.68348L16.4771 0.91748ZM22.7026 6.14209L22.0598 6.90809L23.7026 8.28679V6.14209H22.7026ZM25.7666 8.71777H24.7666V9.18274L25.1221 9.4824L25.7666 8.71777ZM29.1846 11.5986L29.8354 10.8394L29.829 10.834L29.1846 11.5986ZM27.6587 12.978L28.3064 12.2161L28.3015 12.212L27.6587 12.978ZM15.4395 2.72412L14.7668 3.46406L14.7815 3.4774L14.7966 3.49014L15.4395 2.72412ZM14.5728 2.72412L15.2156 3.49014L15.2308 3.4774L15.2454 3.46406L14.5728 2.72412ZM2.35352 12.978L2.98271 13.7553L2.98957 13.7497L2.99633 13.744L2.35352 12.978ZM4.2334 13.6128L3.59102 12.8464L3.2334 13.1462V13.6128H4.2334ZM14.2676 5.20215L13.6254 4.43563L13.6252 4.43576L14.2676 5.20215ZM15.7324 5.20215L15.0883 5.96706L15.09 5.96853L15.7324 5.20215ZM25.7666 13.6128H26.7666V13.1462L26.409 12.8464L25.7666 13.6128ZM18.1372 24.0132V25.0132H19.1372V24.0132H18.1372ZM11.8384 24.0132H10.8384V25.0132H11.8384V24.0132ZM1.4248 12.3921C1.4248 12.3968 1.4237 12.3994 1.42377 12.3992C1.42386 12.399 1.42489 12.3969 1.428 12.3929C1.43108 12.389 1.43731 12.3819 1.44867 12.3726L0.182192 10.8247C-0.320333 11.2358 -0.575195 11.8138 -0.575195 12.3921H1.4248ZM1.4585 12.3644L14.1782 1.68329L12.8921 0.151674L0.172358 10.8328L1.4585 12.3644ZM14.1783 1.68319C14.4786 1.43099 14.7658 1.3407 15.0107 1.3407C15.2549 1.3407 15.5369 1.4304 15.8288 1.67891L17.1253 0.156049C16.5139 -0.364485 15.7827 -0.659302 15.0107 -0.659302C14.2393 -0.659302 13.5073 -0.365072 12.892 0.151776L14.1783 1.68319ZM15.8342 1.68348L22.0598 6.90809L23.3455 5.37609L17.1199 0.15148L15.8342 1.68348ZM23.7026 6.14209V3.83496H21.7026V6.14209H23.7026ZM23.7026 3.83496C23.7026 3.81065 23.7065 3.81174 23.6995 3.83013C23.6919 3.84965 23.6761 3.87769 23.6488 3.90471C23.6217 3.93159 23.5943 3.94648 23.5763 3.95329C23.5593 3.95969 23.5588 3.95605 23.5815 3.95605V1.95605C23.0987 1.95605 22.6116 2.11721 22.2417 2.48348C21.8702 2.85128 21.7026 3.34111 21.7026 3.83496H23.7026ZM23.5815 3.95605H24.8877V1.95605H23.5815V3.95605ZM24.8877 3.95605C24.9162 3.95605 24.9174 3.96053 24.8998 3.95391C24.8807 3.94674 24.8509 3.93062 24.8215 3.9012C24.792 3.87177 24.7759 3.84196 24.7687 3.82289C24.7621 3.80528 24.7666 3.8065 24.7666 3.83496H26.7666C26.7666 3.35094 26.6083 2.85958 26.2357 2.48699C25.8631 2.11439 25.3717 1.95605 24.8877 1.95605V3.95605ZM24.7666 3.83496V8.71777H26.7666V3.83496H24.7666ZM25.1221 9.4824L28.5401 12.3633L29.829 10.834L26.4111 7.95315L25.1221 9.4824ZM28.5338 12.3579C28.5583 12.3789 28.5682 12.3908 28.5702 12.3933C28.5715 12.3949 28.5678 12.3904 28.5635 12.3811C28.5591 12.3717 28.5584 12.3666 28.5591 12.3701C28.56 12.3747 28.563 12.3926 28.563 12.4287H30.563C30.563 12.1313 30.5126 11.8289 30.3764 11.5364C30.2403 11.2443 30.045 11.0191 29.8354 10.8394L28.5338 12.3579ZM28.563 12.4287C28.563 12.4411 28.5611 12.4312 28.5709 12.4095C28.5806 12.3881 28.5946 12.3711 28.6065 12.3609C28.6173 12.3516 28.6199 12.3532 28.6068 12.3577C28.5935 12.3622 28.5666 12.3687 28.5254 12.3687V14.3687C29.0121 14.3687 29.5149 14.2183 29.9122 13.8759C30.3244 13.5206 30.563 13.0072 30.563 12.4287H28.563ZM28.5254 12.3687C28.5403 12.3687 28.5374 12.3741 28.5026 12.3567C28.461 12.3359 28.3994 12.2952 28.3063 12.2161L27.011 13.74C27.2974 13.9834 27.8123 14.3687 28.5254 14.3687V12.3687ZM28.3015 12.212L16.0823 1.9581L14.7966 3.49014L27.0159 13.744L28.3015 12.212ZM16.1121 1.98418C15.8242 1.7224 15.4426 1.54102 15.0061 1.54102C14.5696 1.54102 14.188 1.7224 13.9001 1.98418L15.2454 3.46406C15.226 3.4817 15.1436 3.54102 15.0061 3.54102C14.8686 3.54102 14.7862 3.4817 14.7668 3.46406L16.1121 1.98418ZM13.9299 1.9581L1.7107 12.212L2.99633 13.744L15.2156 3.49014L13.9299 1.9581ZM1.72432 12.2008C1.61761 12.2872 1.55007 12.3314 1.50267 12.3549C1.4633 12.3743 1.45932 12.3687 1.47461 12.3687V14.3687C2.18528 14.3687 2.70106 13.9833 2.98271 13.7553L1.72432 12.2008ZM1.47461 12.3687C1.43154 12.3687 1.41185 12.3612 1.40835 12.3598C1.40463 12.3583 1.40763 12.3589 1.4126 12.3639C1.42154 12.3729 1.4248 12.3833 1.4248 12.3921H-0.575195C-0.575195 13.4369 0.255206 14.3687 1.47461 14.3687V12.3687ZM5.2334 23.2808V13.6128H3.2334V23.2808H5.2334ZM4.87578 14.3792L14.91 5.96853L13.6252 4.43576L3.59102 12.8464L4.87578 14.3792ZM14.9098 5.96867C14.9483 5.93644 14.9757 5.92297 14.9889 5.91774C15.0013 5.91284 15.0047 5.91372 15.0015 5.91374C14.9981 5.91376 15.0001 5.91276 15.0106 5.91682C15.022 5.9212 15.0489 5.93385 15.0883 5.96706L16.3766 4.43724C15.9875 4.1096 15.5094 3.91062 14.9894 3.91378C14.4717 3.91691 14.0024 4.11969 13.6254 4.43563L14.9098 5.96867ZM15.09 5.96853L25.1242 14.3792L26.409 12.8464L16.3748 4.43576L15.09 5.96853ZM24.7666 13.6128V23.2808H26.7666V13.6128H24.7666ZM24.7666 23.2808C24.7666 23.9295 24.5771 24.3226 24.3424 24.5542C24.106 24.7875 23.7006 24.9785 23.0322 24.9785V26.9785C24.0851 26.9785 25.0468 26.669 25.7473 25.9777C26.4495 25.2846 26.7666 24.3288 26.7666 23.2808H24.7666ZM23.0322 24.9785H6.97998V26.9785H23.0322V24.9785ZM6.97998 24.9785C6.31144 24.9785 5.90142 24.7873 5.66138 24.5519C5.42396 24.3191 5.2334 23.9262 5.2334 23.2808H3.2334C3.2334 24.3321 3.55554 25.2881 4.2611 25.9799C4.96406 26.6692 5.92733 26.9785 6.97998 26.9785V24.9785ZM19.1372 24.0132V15.9443H17.1372V24.0132H19.1372ZM19.1372 15.9443C19.1372 15.4419 18.969 14.9408 18.591 14.5628C18.2131 14.1848 17.7119 14.0166 17.2095 14.0166V16.0166C17.2412 16.0166 17.2474 16.0217 17.2357 16.0172C17.2229 16.0123 17.2 16.0002 17.1768 15.977C17.1536 15.9538 17.1415 15.9309 17.1366 15.9181C17.1321 15.9064 17.1372 15.9126 17.1372 15.9443H19.1372ZM17.2095 14.0166H12.7783V16.0166H17.2095V14.0166ZM12.7783 14.0166C12.277 14.0166 11.7767 14.1839 11.3973 14.5562C11.0159 14.9306 10.8384 15.4324 10.8384 15.9443H12.8384C12.8384 15.9166 12.8429 15.9131 12.8378 15.9263C12.8322 15.9405 12.8198 15.9624 12.7982 15.9836C12.7768 16.0046 12.7567 16.0148 12.7471 16.0184C12.7383 16.0217 12.7466 16.0166 12.7783 16.0166V14.0166ZM10.8384 15.9443V24.0132H12.8384V15.9443H10.8384ZM11.8384 25.0132H18.1372V23.0132H11.8384V25.0132Z" fill="black"/>
</svg>
