<svg width="30" height="26" viewBox="0 0 30 26" fill="none" xmlns="http://www.w3.org/2000/svg">
<path d="M0.424805 12.3921C0.424805 12.1113 0.546875 11.8184 0.81543 11.5986L13.5352 0.91748C14.4507 0.148438 15.5737 0.148438 16.4771 0.91748L22.7026 6.14209V3.83496C22.7026 3.29785 23.0566 2.95605 23.5815 2.95605H24.8877C25.4248 2.95605 25.7666 3.29785 25.7666 3.83496V8.71777L29.1846 11.5986C29.4409 11.8184 29.563 12.0625 29.563 12.4287C29.563 13.0146 29.0991 13.3687 28.5254 13.3687C28.1836 13.3687 27.9028 13.1855 27.6587 12.978L15.4395 2.72412C15.1709 2.47998 14.8413 2.47998 14.5728 2.72412L2.35352 12.978C2.09717 13.1855 1.81641 13.3687 1.47461 13.3687C0.81543 13.3687 0.424805 12.8926 0.424805 12.3921ZM4.2334 23.2808V13.6128L14.2676 5.20215C14.7192 4.82373 15.2686 4.81152 15.7324 5.20215L25.7666 13.6128V23.2808C25.7666 24.9775 24.7534 25.9785 23.0322 25.9785H6.97998C5.25879 25.9785 4.2334 24.9775 4.2334 23.2808ZM18.1372 24.0132V15.9443C18.1372 15.3828 17.771 15.0166 17.2095 15.0166H12.7783C12.2168 15.0166 11.8384 15.3828 11.8384 15.9443V24.0132H18.1372Z" fill="white"/>
</svg>
