<svg width="28" height="27" viewBox="0 0 28 27" fill="none" xmlns="http://www.w3.org/2000/svg">
<path d="M12.7671 26.2358C11.8271 26.2358 11.1069 25.6621 10.8872 24.7588L10.3501 22.4761L9.95947 22.3418L7.98193 23.5625C7.18848 24.063 6.26074 23.9409 5.58936 23.2695L3.89258 21.5728C3.22119 20.9014 3.08691 19.9736 3.59961 19.1924L4.83252 17.2148L4.69824 16.8486L2.41553 16.3115C1.52441 16.0918 0.938477 15.3594 0.938477 14.4316V12.0146C0.938477 11.0869 1.51221 10.3545 2.41553 10.1348L4.67383 9.58545L4.82031 9.19482L3.5874 7.21729C3.07471 6.43604 3.20898 5.52051 3.88037 4.83691L5.57715 3.12793C6.23633 2.46875 7.16406 2.34668 7.95752 2.83496L9.93506 4.05566L10.3501 3.89697L10.8872 1.61426C11.1069 0.710938 11.8271 0.137207 12.7671 0.137207H15.2329C16.1729 0.137207 16.8931 0.710938 17.1128 1.61426L17.6377 3.89697L18.0527 4.05566L20.0425 2.83496C20.8359 2.34668 21.7515 2.46875 22.4106 3.12793L24.1196 4.83691C24.791 5.52051 24.9131 6.43604 24.4126 7.21729L23.1675 9.19482L23.3262 9.58545L25.5845 10.1348C26.4878 10.3545 27.0615 11.0869 27.0615 12.0146V14.4316C27.0615 15.3594 26.4756 16.0918 25.5845 16.3115L23.3018 16.8486L23.1553 17.2148L24.4004 19.1924C24.9009 19.9736 24.7788 20.9014 24.1074 21.5728L22.3984 23.2695C21.7271 23.9409 20.8115 24.063 20.0181 23.5625L18.0283 22.3418L17.6377 22.4761L17.1128 24.7588C16.8931 25.6621 16.1729 26.2358 15.2329 26.2358H12.7671ZM12.9624 24.3315H15.0376C15.2451 24.3315 15.355 24.2461 15.3794 24.0508L16.124 21.0234C16.8687 20.8403 17.5522 20.5474 18.0771 20.2178L20.7383 21.8535C20.897 21.9634 21.0435 21.939 21.2021 21.7925L22.6304 20.3521C22.7769 20.2178 22.7769 20.0713 22.6792 19.9004L21.0435 17.2637C21.3364 16.751 21.6416 16.0552 21.8369 15.3105L24.8765 14.5903C25.0596 14.5537 25.1572 14.4438 25.1572 14.2363V12.1978C25.1572 11.978 25.0718 11.8804 24.8765 11.8438L21.8491 11.1113C21.6538 10.3179 21.2998 9.59766 21.0679 9.146L22.6914 6.50928C22.8013 6.32617 22.8013 6.17969 22.6548 6.0332L21.2144 4.61719C21.0557 4.4707 20.9336 4.44629 20.7383 4.55615L18.0894 6.16748C17.54 5.87451 16.8809 5.56934 16.124 5.37402L15.3794 2.32227C15.355 2.12695 15.2451 2.0415 15.0376 2.0415H12.9624C12.7549 2.0415 12.645 2.12695 12.6084 2.32227L11.8882 5.34961C11.1558 5.55713 10.4111 5.8623 9.88623 6.15527L7.24951 4.55615C7.06641 4.44629 6.93213 4.4707 6.78564 4.61719L5.33301 6.0332C5.19873 6.17969 5.18652 6.32617 5.29639 6.50928L6.91992 9.146C6.7002 9.59766 6.33398 10.3179 6.13867 11.1113L3.12354 11.8438C2.91602 11.8804 2.84277 11.978 2.84277 12.1978V14.2363C2.84277 14.4438 2.92822 14.5537 3.12354 14.5903L6.15088 15.3105C6.34619 16.0552 6.66357 16.751 6.94434 17.2637L5.30859 19.9004C5.21094 20.0713 5.22314 20.2178 5.35742 20.3521L6.79785 21.7925C6.94434 21.939 7.10303 21.9634 7.24951 21.8535L9.91064 20.2178C10.4355 20.5474 11.1313 20.8403 11.876 21.0234L12.6084 24.0508C12.645 24.2461 12.7549 24.3315 12.9624 24.3315ZM14 17.8496C11.4365 17.8496 9.33691 15.7378 9.33691 13.1865C9.33691 10.6475 11.4487 8.54785 14 8.54785C16.5513 8.54785 18.6509 10.6475 18.6509 13.1865C18.6509 15.75 16.5513 17.8496 14 17.8496ZM14 15.9575C15.4893 15.9575 16.7344 14.7002 16.7344 13.1865C16.7344 11.6851 15.4893 10.4399 14 10.4399C12.4863 10.4399 11.2412 11.6851 11.2412 13.1865C11.2412 14.7124 12.4863 15.9575 14 15.9575Z" fill="white"/>
</svg>
