<svg width="22" height="27" viewBox="0 0 22 27" fill="none" xmlns="http://www.w3.org/2000/svg">
<path d="M0.733887 22.4517V3.93359C0.733887 1.39453 1.99121 0.100586 4.51807 0.100586H17.4819C20.0088 0.100586 21.2661 1.39453 21.2661 3.93359V22.4517C21.2661 25.0029 20.0088 26.2725 17.4819 26.2725H4.51807C1.99121 26.2725 0.733887 25.0029 0.733887 22.4517ZM2.69922 22.415C2.69922 23.6357 3.34619 24.3071 4.61572 24.3071H17.3843C18.6538 24.3071 19.3008 23.6357 19.3008 22.415V3.97021C19.3008 2.74951 18.6538 2.06592 17.3843 2.06592H4.61572C3.34619 2.06592 2.69922 2.74951 2.69922 3.97021V22.415ZM5.23828 4.14111H12.7212C13.2095 4.14111 13.5024 4.4585 13.5024 4.97119V7.00977C13.5024 7.52246 13.2095 7.83984 12.7212 7.83984H5.23828C4.73779 7.83984 4.44482 7.52246 4.44482 7.00977V4.97119C4.44482 4.4585 4.73779 4.14111 5.23828 4.14111ZM5.23828 8.93848H16.7861C17.2744 8.93848 17.5674 9.25586 17.5674 9.75635V11.7949C17.5674 12.3076 17.2744 12.625 16.7861 12.625H5.23828C4.73779 12.625 4.44482 12.3076 4.44482 11.8071V9.75635C4.44482 9.25586 4.73779 8.93848 5.23828 8.93848ZM5.23828 13.7358H14.772C15.2603 13.7358 15.5532 14.041 15.5532 14.5415V16.6045C15.5532 17.1172 15.2603 17.4224 14.772 17.4224H5.23828C4.73779 17.4224 4.44482 17.1172 4.44482 16.6045V14.5415C4.44482 14.041 4.73779 13.7358 5.23828 13.7358ZM5.23828 18.521H10.7559C11.2319 18.521 11.5371 18.8384 11.5371 19.3511V21.3896C11.5371 21.9023 11.2319 22.2197 10.7559 22.2197H5.23828C4.73779 22.2197 4.44482 21.9023 4.44482 21.3896V19.3511C4.44482 18.8384 4.73779 18.521 5.23828 18.521Z" fill="white"/>
</svg>
